<?xml version="1.0" encoding="utf-8"?>
<!-- Generator: Adobe Illustrator 16.0.0, SVG Export Plug-In . SVG Version: 6.00 Build 0)  -->
<!DOCTYPE svg PUBLIC "-//W3C//DTD SVG 1.1//EN" "http://www.w3.org/Graphics/SVG/1.1/DTD/svg11.dtd">
<svg version="1.1" id="Layer_1" xmlns="http://www.w3.org/2000/svg" xmlns:xlink="http://www.w3.org/1999/xlink" x="0px" y="0px"
	 width="512px" height="512px" viewBox="0 0 512 512" enable-background="new 0 0 512 512" xml:space="preserve">
<path d="M510.503,242.483L454.407,91.455c-2.218-5.973-6.644-10.729-12.461-13.396c-5.819-2.662-12.308-2.912-18.281-0.698
	l-37.546,13.943c-12.359,4.592-18.682,18.385-14.092,30.745l0.609,1.64c-8.883,3.372-18.797-0.311-33.951-6.658
	c-22.627-9.473-53.315-22.193-92.274,2.174c-31.62-19.681-56.432-14.826-78.404-10.451c-11.161,2.218-21.792,4.306-32.771,3.17
	c-0.309-2.885-1.1-5.728-2.465-8.395c-2.919-5.698-7.864-9.914-13.925-11.869L80.731,79.365c-6.063-1.955-12.54-1.423-18.235,1.489
	c-5.696,2.919-9.912,7.865-11.865,13.925L1.157,248.107c-4.048,12.549,2.868,26.051,15.419,30.098l38.113,12.299
	c2.405,0.777,4.874,1.162,7.333,1.162c3.743,0,7.464-0.893,10.901-2.65c2.123-1.089,3.958-2.537,5.629-4.142
	c0.235,1.16,0.55,2.308,0.834,3.459l-9.542,17.839c-4.092,7.655-4.885,16.938-2.171,25.463c2.642,8.303,8.214,14.932,15.521,18.584
	c6.369,3.407,13.386,4.473,20.048,3.49c-1.903,6.311-1.867,13.232,0.195,19.719c2.643,8.301,8.214,14.934,15.522,18.584
	c7.644,4.088,16.442,4.941,24.781,2.42c3.331-1.012,6.426-2.512,9.199-4.439c2.677,8.173,8.205,14.695,15.431,18.306
	c7.642,4.089,16.44,4.941,24.778,2.419c1.852-0.563,3.632-1.275,5.32-2.128c2.507,10.065,9.664,19.029,18.585,23.801
	c4.261,2.277,9.279,3.745,14.488,3.745c9.466,0,19.56-4.851,26.862-18.5l1.424-2.664c0.555,0.291,1.106,0.582,1.613,0.846
	l3.809,1.986c4.664,2.401,9.223,3.459,13.509,3.459c10.693,0,19.675-6.59,24.267-15.342c3.162-6.021,4.275-13.182,2.741-20.132
	c3.858,0.2,7.759-0.259,11.572-1.414c8.563-2.595,15.59-8.344,19.786-16.188c3.39-6.338,4.616-13.453,3.595-20.469
	c7.162,2.973,15.083,3.36,22.637,1.072c8.637-2.617,15.726-8.419,19.957-16.331c3.459-6.471,4.688-13.743,3.588-20.899
	c11.673,4.652,22.937,2.524,30.756-6.043c7.929-8.684,10.595-21.986,7.63-33.857c0.612-0.221,1.233-0.443,1.924-0.691l0.109-0.039
	l0.801,2.152c3.576,9.624,12.731,15.585,22.442,15.585c2.761,0,5.565-0.479,8.299-1.495l37.544-13.943
	C508.771,268.635,515.093,254.845,510.503,242.483L510.503,242.483z M71.623,270.84c-0.822,2.545-2.6,4.626-5.007,5.858
	c-2.412,1.231-5.138,1.459-7.679,0.64l-38.116-12.302c-5.287-1.705-8.202-7.394-6.498-12.682L63.799,99.027
	c0.82-2.543,2.597-4.624,5.004-5.856c1.455-0.745,3.029-1.124,4.608-1.124c1.031,0,2.063,0.16,3.067,0.484
	c0.002,0,0.002,0,0.002,0.002l38.116,12.297c2.543,0.82,4.624,2.597,5.856,5.004c1.231,2.408,1.459,5.133,0.64,7.678L81.596,239.93
	c-0.173,0.334-0.34,0.676-0.459,1.046c-0.347,1.07-0.615,2.153-0.92,3.23L71.623,270.84z M89.553,337.93
	c-4.108-2.053-7.196-5.777-8.693-10.49c-1.588-4.988-1.154-10.361,1.188-14.74l10.78-20.155c0.002-0.002,0.005-0.004,0.006-0.007
	l5.148-9.628c4.797-8.964,15.912-12.429,24.933-7.876c5.917,4.137,14.792,12.934,8.058,25.521l-3.669,6.86l-12.279,22.957
	C110.152,339.443,98.81,342.885,89.553,337.93z M150.804,372.139c-2.342,4.383-6.277,7.596-11.079,9.051
	c-4.799,1.455-9.857,0.965-14.407-1.465c-4.107-2.053-7.195-5.779-8.692-10.492c-1.588-4.985-1.153-10.359,1.188-14.737
	l9.412-17.595l12.279-22.957c2.342-4.381,6.277-7.594,11.076-9.049c4.802-1.459,9.855-0.965,14.24,1.379
	c4.382,2.342,7.595,6.276,9.05,11.078c1.455,4.799,0.964,9.858-1.381,14.241l-3.448,6.45c-0.002,0.007-0.007,0.014-0.012,0.02
	l-14.009,26.191c0,0.002,0,0.002-0.002,0.004L150.804,372.139z M189.136,397.475c-4.802,1.455-9.856,0.965-14.407-1.466
	c-4.107-2.052-7.193-5.776-8.692-10.487c-1.583-4.982-1.155-10.345,1.178-14.721l0.011-0.02l14.009-26.191
	c0.001-0.003,0.002-0.006,0.003-0.009l0.009-0.013c2.345-4.373,6.274-7.576,11.066-9.029c4.797-1.462,9.856-0.969,14.238,1.378
	c9.094,4.865,12.536,16.224,7.673,25.317l-7.004,13.097l-6.209,11.608c-0.002,0.004-0.005,0.009-0.007,0.013l-0.788,1.473
	C197.873,392.805,193.936,396.02,189.136,397.475L189.136,397.475z M223.582,420.188c-9.07-4.851-15.561-17.02-10.369-26.725
	l6.209-11.607l0.007-0.017c2.421-4.513,6.725-8.139,11.813-9.946c5.078-1.806,10.178-1.564,14.361,0.674
	c9.117,4.873,10.588,9.139,10.898,11.923c0.473,4.209-1.31,9.806-5.771,18.146c-0.003,0.008-0.005,0.014-0.008,0.02l-4.521,8.453
	C238.545,425.438,228.746,422.947,223.582,420.188L223.582,420.188z M290.776,399.493c-3.263,6.228-10.461,10.502-19.19,6.011
	l-3.707-1.936c-0.613-0.323-1.186-0.623-1.716-0.9c2.802-6.232,4.844-13.004,4.092-19.718c-0.849-7.571-5.049-13.886-12.671-19.21
	l27.249,14.633C293.938,384.768,293.907,393.527,290.776,399.493z M407.44,296.188c-4.455,4.885-10.57,5.299-18.18,1.225
	l-19.734-10.555c-0.014-0.006-0.027-0.014-0.041-0.02c-0.202-0.107-0.413-0.17-0.62-0.256l-63.633-34.541
	c-3.351-1.827-7.556-0.579-9.38,2.781c-1.822,3.357-0.579,7.556,2.781,9.38l64.979,35.272c4.301,2.521,7.495,6.488,8.965,11.332
	c1.545,5.1,1.025,10.471-1.466,15.127c-2.489,4.654-6.669,8.069-11.768,9.614c-5.108,1.543-10.476,1.025-15.126-1.464l-19.62-10.494
	c-0.341-0.277-0.709-0.531-1.111-0.746l-47.35-25.318c-3.374-1.805-7.563-0.526-9.362,2.841c-1.802,3.368-0.531,7.562,2.84,9.362
	l46.16,24.681c0.342,0.28,0.713,0.534,1.118,0.751c4.588,2.453,7.953,6.57,9.475,11.597c1.522,5.025,1.01,10.317-1.443,14.903
	c-2.453,4.588-6.572,7.95-11.598,9.475c-5.021,1.521-10.316,1.01-14.902-1.443l-10.016-5.356c-0.505-0.269-1.028-0.448-1.558-0.583
	l-40.426-21.707c-3.367-1.82-7.563-0.547-9.367,2.822c-1.809,3.365-0.545,7.561,2.822,9.367l8.496,4.562
	c-5.769-2.126-12.086-2.528-18.408-0.954c1.786-13.099-4.572-26.539-16.892-33.13c-7.57-4.049-16.281-4.93-24.55-2.485
	c-0.059-2.974-0.526-5.959-1.414-8.89c-2.526-8.34-8.128-15.182-15.768-19.268c-7.68-4.104-16.283-4.812-24.069-2.64
	c-0.133-11.754-7.594-21.529-16.479-27.768c-0.304-0.234-0.628-0.443-0.973-0.628c-13.266-7.092-29.298-4.027-39.123,6.468
	c-0.159-7.195,0.824-14.42,2.823-21.491l39.489-122.393c13.349,1.545,25.7-0.904,37.689-3.294
	c19.932-3.964,38.861-7.732,63.322,5.601c-5.329,4.243-10.688,9.085-16.018,14.468c-4.218,4.266-8.556,8.525-12.788,12.68
	c-15.428,15.153-28.752,28.24-32.562,37.528c-0.922,2.245-0.6,4.808,0.849,6.754c27.538,37.035,60.911,24.468,87.716,14.374
	c20.096-7.57,37.452-14.11,51.278-3.169c0.261,0.207,0.535,0.394,0.823,0.561c6.604,3.826,15.698,8.317,26.229,13.518
	c25.461,12.576,60.332,29.799,69.343,43.496C414.95,277.331,413.03,290.063,407.44,296.188L407.44,296.188z M419.381,259.081
	c-12.079-16.381-46.128-33.231-73.697-46.845c-10.085-4.982-18.826-9.297-25.011-12.849c-19.86-15.349-42.461-6.84-64.325,1.394
	c-25.914,9.754-48.447,18.236-69.03-6.252c4.835-7.225,16.381-18.563,27.599-29.58c4.278-4.203,8.662-8.509,12.928-12.82
	c7.392-7.466,14.789-13.746,22.001-18.709c34.854-23.968,60.691-13.169,83.495-3.626c10.662,4.464,21.545,9.02,32.31,9.02
	c3.954,0,7.887-0.722,11.793-2.181l45.062,121.324C421.453,258.335,420.391,258.718,419.381,259.081z M491.594,260.255
	l-37.544,13.943c-5.226,1.928-11.025-0.73-12.957-5.937L385,117.228c-0.931-2.504-0.822-5.236,0.304-7.696
	c1.128-2.459,3.128-4.326,5.633-5.257l37.544-13.943c1.128-0.419,2.302-0.628,3.475-0.628c1.438,0,2.872,0.313,4.226,0.932
	c2.457,1.126,4.324,3.128,5.254,5.635L497.53,247.3C499.465,252.51,496.801,258.32,491.594,260.255L491.594,260.255z"/>
</svg>
