<?xml version="1.0" encoding="utf-8"?>
<!-- Generator: Adobe Illustrator 16.0.0, SVG Export Plug-In . SVG Version: 6.00 Build 0)  -->
<!DOCTYPE svg PUBLIC "-//W3C//DTD SVG 1.1//EN" "http://www.w3.org/Graphics/SVG/1.1/DTD/svg11.dtd">
<svg version="1.1" id="Warstwa_1" xmlns="http://www.w3.org/2000/svg" xmlns:xlink="http://www.w3.org/1999/xlink" x="0px" y="0px"
	 width="214.805px" height="16.496px" viewBox="-2.958 63.318 214.805 16.496"
	 enable-background="new -2.958 63.318 214.805 16.496" xml:space="preserve">
<path fill="#16DB65" d="M-2.958,79.258V63.695h3.89v15.563H-2.958z"/>
<path fill="#16DB65" d="M19.251,63.695v15.563h-4.247l-5.27-8.426v8.426h-3.89V63.695h4.024l5.49,8.781v-8.781H19.251z"/>
<path fill="#16DB65" d="M38.704,63.695l-6.559,15.563h-4.224l-6.56-15.563h4.225l4.446,10.561l4.445-10.561H38.704z"/>
<path fill="#FFFFFF" d="M55.445,71.477c0,4.291-3.489,7.78-7.78,7.78h-6.804V63.695h6.804
	C51.955,63.695,55.445,67.186,55.445,71.477z M47.642,75.391c2.134,0,3.892-1.759,3.892-3.914c0-2.134-1.734-3.892-3.869-3.892
	h-2.913v7.781h2.913L47.642,75.391z"/>
<path fill="#FFFFFF" d="M67.695,63.719v3.892h-6.803v1.934h2.913v3.892h-2.913v1.934h6.804v3.891H57.001V63.695L67.695,63.719z"/>
<path fill="#FFFFFF" d="M87.17,63.695l-6.56,15.563h-4.224l-6.559-15.563h4.224l4.447,10.561l4.445-10.561H87.17z"/>
<path fill="#FFFFFF" d="M100.021,63.719v3.892h-6.803v1.934h2.912v3.892h-2.912v1.934h6.803v3.891H89.327V63.695L100.021,63.719z"/>
<path fill="#FFFFFF" d="M114.849,75.367v3.891h-11.672V63.695h3.891v11.672H114.849z"/>
<path fill="#FFFFFF" d="M132.412,71.566c0,4.557-3.69,8.248-8.248,8.248c-4.559,0-8.248-3.691-8.248-8.248
	c0-4.56,3.689-8.248,8.248-8.248C128.722,63.318,132.412,67.008,132.412,71.566z M128.543,71.588c0-2.424-1.956-4.379-4.379-4.379
	c-2.424,0-4.38,1.955-4.38,4.379c0,2.425,1.956,4.381,4.38,4.381C126.587,75.969,128.543,74.012,128.543,71.588z"/>
<path fill="#FFFFFF" d="M147.529,69.965c0,3.47-2.801,6.271-6.27,6.271h-2.801v3.022h-3.892V63.695h6.691
	C144.729,63.695,147.529,66.498,147.529,69.965z M143.639,69.965c0-1.311-1.067-2.379-2.379-2.379h-2.801v4.758h2.801
	C142.571,72.344,143.639,71.277,143.639,69.965z"/>
<path fill="#FFFFFF" d="M166.694,63.719v15.563h-3.891V68.408l-2.846,2.846l1.534,1.802l-2.979,2.489l-5.424-6.469v10.182h-3.892
	V63.695h4.469l3.779,4.535l4.535-4.535L166.694,63.719z"/>
<path fill="#FFFFFF" d="M180.521,63.719v3.892h-6.803v1.934h2.912v3.892h-2.912v1.934h6.803v3.891h-10.692V63.695L180.521,63.719z"
	/>
<path fill="#FFFFFF" d="M196.084,63.695v15.563h-4.246l-5.27-8.426v8.426h-3.891V63.695h4.023l5.49,8.781v-8.781H196.084z"/>
<path fill="#FFFFFF" d="M211.847,63.695v3.891h-4.869v11.672h-3.891V67.586h-4.868v-3.891H211.847z"/>
</svg>
